<svg xmlns="http://www.w3.org/2000/svg" viewBox="0 0 900 640"><defs><linearGradient id="bg" x1="0" x2="1" y1="0" y2="1"><stop stop-color="#fff4fb"/><stop offset="1" stop-color="#eef4ff"/></linearGradient><linearGradient id="orb" x1="0" x2="1" y1="0" y2="1"><stop stop-color="#ff5f8f"/><stop offset=".5" stop-color="#9b73ff"/><stop offset="1" stop-color="#67a7ff"/></linearGradient><filter id="blur"><feGaussianBlur stdDeviation="12"/></filter></defs><rect width="900" height="640" rx="46" fill="url(#bg)"/><circle cx="225" cy="198" r="118" fill="#ff5f8f" opacity=".20" filter="url(#blur)"/><circle cx="650" cy="450" r="150" fill="#67a7ff" opacity=".18" filter="url(#blur)"/><rect x="84" y="92" width="270" height="210" rx="34" fill="#fff" stroke="#e9deef" stroke-width="3"/><rect x="114" y="128" width="74" height="74" rx="24" fill="url(#orb)"/><rect x="210" y="136" width="100" height="18" rx="9" fill="#241b42" opacity=".85"/><rect x="210" y="172" width="72" height="14" rx="7" fill="#968ba7"/><rect x="114" y="236" width="190" height="16" rx="8" fill="#efe8f6"/><rect x="114" y="266" width="145" height="16" rx="8" fill="#efe8f6"/><rect x="546" y="90" width="270" height="210" rx="34" fill="#fff" stroke="#e9deef" stroke-width="3"/><rect x="576" y="128" width="74" height="74" rx="24" fill="url(#orb)"/><rect x="672" y="136" width="96" height="18" rx="9" fill="#241b42" opacity=".85"/><rect x="672" y="172" width="82" height="14" rx="7" fill="#968ba7"/><rect x="576" y="236" width="188" height="16" rx="8" fill="#efe8f6"/><rect x="576" y="266" width="124" height="16" rx="8" fill="#efe8f6"/><rect x="282" y="372" width="338" height="168" rx="38" fill="#fff" stroke="#ffb9cf" stroke-width="4"/><text x="322" y="430" fill="#ff4f8c" font-family="Arial, sans-serif" font-size="28" font-weight="800">记忆、称呼、专属感</text><text x="322" y="482" fill="#706780" font-family="Arial, sans-serif" font-size="22">工具开始拥有“关系的样子”</text><path d="M355 302 C390 350 405 360 450 372" fill="none" stroke="#9b73ff" stroke-width="8" stroke-linecap="round"/><path d="M546 302 C510 350 493 360 450 372" fill="none" stroke="#ff5f8f" stroke-width="8" stroke-linecap="round"/></svg>