<svg xmlns="http://www.w3.org/2000/svg" viewBox="0 0 900 640"><defs><linearGradient id="g" x1="0" x2="1"><stop stop-color="#161229"/><stop offset="1" stop-color="#3b2d63"/></linearGradient><linearGradient id="p" x1="0" x2="1" y1="0" y2="1"><stop stop-color="#6ea8ff"/><stop offset=".55" stop-color="#9b73ff"/><stop offset="1" stop-color="#ff5f8f"/></linearGradient><filter id="b"><feGaussianBlur stdDeviation="18"/></filter></defs><rect width="900" height="640" rx="46" fill="url(#g)"/><circle cx="730" cy="125" r="95" fill="#ff6a9a" opacity=".22" filter="url(#b)"/><circle cx="235" cy="470" r="130" fill="#67a7ff" opacity=".18" filter="url(#b)"/><rect x="478" y="88" width="238" height="474" rx="38" fill="#0e0b1d" stroke="#ffffff" stroke-opacity=".22" stroke-width="7"/><rect x="499" y="132" width="196" height="386" rx="22" fill="#15142a"/><circle cx="597" cy="108" r="7" fill="#746b92"/><rect x="524" y="182" width="118" height="32" rx="16" fill="#ffffff" opacity=".92"/><rect x="540" y="244" width="126" height="48" rx="24" fill="#ffffff" opacity=".16"/><rect x="520" y="318" width="148" height="52" rx="26" fill="#ff6a9a" opacity=".9"/><rect x="540" y="397" width="96" height="34" rx="17" fill="#ffffff" opacity=".18"/><path d="M100 510 C155 400 217 347 304 360 C380 372 421 443 480 420" fill="none" stroke="url(#p)" stroke-width="18" stroke-linecap="round" opacity=".8"/><circle cx="182" cy="410" r="48" fill="#fff" opacity=".92"/><path d="M182 440 C125 404 151 354 182 381 C214 354 240 404 182 440Z" fill="#ff5f8f"/><text x="82" y="88" fill="#fff" font-family="Arial, sans-serif" font-size="42" font-weight="800">23:48</text><text x="82" y="140" fill="#cabfe5" font-family="Arial, sans-serif" font-size="24">一个人打开聊天框</text></svg>